<svg width="279" height="95" viewBox="0 0 279 95" fill="none" xmlns="http://www.w3.org/2000/svg">
    <path d="M48.5263 1.85237L26.7709 54.3802C26.1593 55.7916 26.1593 56.8942 26.7709 57.688C27.3825 58.3937 28.2999 58.7465 29.5231 58.7465H81.4216V70.7869L70.2817 72.7716H15.1068C12.6604 72.7716 10.5635 72.11 8.81607 70.7869C7.06864 69.3756 5.88913 67.6114 5.27753 65.4944C4.7533 63.2892 4.97173 61.084 5.93282 58.8788L29.6541 1.85237H48.5263ZM70.4128 19.5822V93.1476H51.9338V34.1365L55.2102 19.5822H70.4128Z" fill="#5CA8FF"/>
    <path d="M142.326 0C150.976 0 157.835 1.54364 162.902 4.63092C168.057 7.7182 171.727 12.7461 173.911 19.7145C176.182 26.5947 177.318 35.8565 177.318 47.5C177.318 59.1435 176.182 68.4494 173.911 75.4178C171.727 82.2981 168.057 87.2818 162.902 90.3691C157.835 93.4564 150.976 95 142.326 95C133.676 95 126.774 93.4564 121.619 90.3691C116.552 87.2818 112.926 82.2981 110.741 75.4178C108.557 68.4494 107.465 59.1435 107.465 47.5C107.465 35.8565 108.557 26.5947 110.741 19.7145C112.926 12.7461 116.552 7.7182 121.619 4.63092C126.774 1.54364 133.676 0 142.326 0ZM142.195 15.8774C139.312 15.8774 136.909 16.3626 134.987 17.3329C133.065 18.3032 131.536 19.935 130.4 22.2284C129.264 24.5218 128.434 27.7414 127.91 31.8872C127.473 35.9448 127.255 41.149 127.255 47.5C127.255 53.7628 127.473 58.967 127.91 63.1128C128.434 67.2586 129.264 70.4782 130.4 72.7716C131.536 75.065 133.065 76.6968 134.987 77.6671C136.909 78.6374 139.312 79.1226 142.195 79.1226C145.166 79.1226 147.612 78.6374 149.534 77.6671C151.544 76.6968 153.116 75.065 154.252 72.7716C155.476 70.4782 156.306 67.2586 156.742 63.1128C157.267 58.967 157.529 53.7628 157.529 47.5C157.529 41.149 157.267 35.9448 156.742 31.8872C156.306 27.7414 155.476 24.5218 154.252 22.2284C153.116 19.935 151.544 18.3032 149.534 17.3329C147.612 16.3626 145.166 15.8774 142.195 15.8774Z" fill="#5CA8FF"/>
    <path d="M246.105 1.85237L224.349 54.3802C223.738 55.7916 223.738 56.8942 224.349 57.688C224.961 58.3937 225.878 58.7465 227.101 58.7465H279V70.7869L267.86 72.7716H212.685C210.239 72.7716 208.142 72.11 206.395 70.7869C204.647 69.3756 203.468 67.6114 202.856 65.4944C202.332 63.2892 202.55 61.084 203.511 58.8788L227.233 1.85237H246.105ZM267.991 19.5822V93.1476H249.512V34.1365L252.789 19.5822H267.991Z" fill="#5CA8FF"/>
    <path d="M43.5263 1.85237L21.7709 54.3802C21.1593 55.7916 21.1593 56.8942 21.7709 57.688C22.3825 58.3937 23.2999 58.7465 24.5231 58.7465H76.4216V70.7869L65.2817 72.7716H10.1068C7.6604 72.7716 5.56349 72.11 3.81607 70.7869C2.06864 69.3756 0.889131 67.6114 0.277532 65.4944C-0.246695 63.2892 -0.0282672 61.084 0.932816 58.8788L24.6541 1.85237H43.5263ZM65.4128 19.5822V93.1476H46.9338V34.1365L50.2102 19.5822H65.4128Z" fill="#328BF1"/>
    <path d="M137.326 0C145.976 0 152.835 1.54364 157.902 4.63092C163.057 7.7182 166.727 12.7461 168.911 19.7145C171.182 26.5947 172.318 35.8565 172.318 47.5C172.318 59.1435 171.182 68.4494 168.911 75.4178C166.727 82.2981 163.057 87.2818 157.902 90.3691C152.835 93.4564 145.976 95 137.326 95C128.676 95 121.774 93.4564 116.619 90.3691C111.552 87.2818 107.926 82.2981 105.741 75.4178C103.557 68.4494 102.465 59.1435 102.465 47.5C102.465 35.8565 103.557 26.5947 105.741 19.7145C107.926 12.7461 111.552 7.7182 116.619 4.63092C121.774 1.54364 128.676 0 137.326 0ZM137.195 15.8774C134.312 15.8774 131.909 16.3626 129.987 17.3329C128.065 18.3032 126.536 19.935 125.4 22.2284C124.264 24.5218 123.434 27.7414 122.91 31.8872C122.473 35.9448 122.255 41.149 122.255 47.5C122.255 53.7628 122.473 58.967 122.91 63.1128C123.434 67.2586 124.264 70.4782 125.4 72.7716C126.536 75.065 128.065 76.6968 129.987 77.6671C131.909 78.6374 134.312 79.1226 137.195 79.1226C140.166 79.1226 142.612 78.6374 144.534 77.6671C146.544 76.6968 148.116 75.065 149.252 72.7716C150.476 70.4782 151.306 67.2586 151.742 63.1128C152.267 58.967 152.529 53.7628 152.529 47.5C152.529 41.149 152.267 35.9448 151.742 31.8872C151.306 27.7414 150.476 24.5218 149.252 22.2284C148.116 19.935 146.544 18.3032 144.534 17.3329C142.612 16.3626 140.166 15.8774 137.195 15.8774Z" fill="#328BF1"/>
    <path d="M241.105 1.85237L219.349 54.3802C218.738 55.7916 218.738 56.8942 219.349 57.688C219.961 58.3937 220.878 58.7465 222.101 58.7465H274V70.7869L262.86 72.7716H207.685C205.239 72.7716 203.142 72.11 201.395 70.7869C199.647 69.3756 198.468 67.6114 197.856 65.4944C197.332 63.2892 197.55 61.084 198.511 58.8788L222.233 1.85237H241.105ZM262.991 19.5822V93.1476H244.512V34.1365L247.789 19.5822H262.991Z" fill="#328BF1"/>
</svg>
