<svg width="266" height="56" viewBox="0 0 266 56" fill="none" xmlns="http://www.w3.org/2000/svg">
    <path d="M47.8544 22.8697C48.1934 25.1574 46.6178 27.2873 44.3352 27.6271C42.0526 27.9669 39.9274 26.3877 39.5884 24.1001C39.2494 21.8124 40.825 19.6824 43.1076 19.3426C45.3902 19.0029 47.5154 20.582 47.8544 22.8697Z" fill="#133570"/>
    <path d="M53.7565 17.7577C58.4928 33.0118 49.6632 47.5634 42.7763 51.2568C48.9576 36.0108 33.4133 33.3334 32.3009 32.241C46.0637 34.705 51.2481 29.5934 53.7565 17.7577Z" fill="#133570"/>
    <path d="M40.7483 53.154C38.3062 53.7733 35.7487 54.1024 33.1145 54.1024C15.9823 54.1024 2.09384 40.1829 2.09384 23.0123C2.09384 19.9067 2.54818 16.9075 3.39387 14.0777C1.22897 18.0927 0 22.6891 0 27.5731C0 43.2728 12.6987 56 28.3634 56C32.8039 56 37.0062 54.9772 40.7483 53.154Z" fill="#133570"/>
    <path fill-rule="evenodd" clip-rule="evenodd" d="M52.0804 13.2035C50.4055 10.4729 48.2372 8.05193 45.5822 5.95212C40.7796 2.15328 35.276 0.130301 29.1601 0.00666894C21.6038 -0.146599 14.9801 2.34152 9.43045 7.51704C7.62409 9.2022 6.25155 11.2529 5.1092 13.4527L5.10352 13.4597L5.10572 13.4594L5.1092 13.4527C5.29 13.2293 5.46619 13.0015 5.64236 12.7736C6.03776 12.2624 6.4331 11.7512 6.88047 11.2897C7.61991 10.5259 8.39397 9.79565 9.16806 9.06541C9.49901 8.75321 9.83021 8.44077 10.1585 8.12591C10.3668 7.92578 10.5572 7.86675 10.8418 8.04075C14.9576 10.5637 18.6947 13.5558 22.0301 17.0518C22.0873 17.1121 22.1394 17.1775 22.2064 17.2614C22.2418 17.3057 22.2813 17.3553 22.3279 17.412C18.0148 19.8007 13.3974 21.1747 8.63284 22.2051C8.76943 22.2019 8.90602 22.2003 9.04257 22.1988C9.33365 22.1954 9.62466 22.192 9.91485 22.1731C14.532 21.8758 19.0285 21.044 23.2661 19.0998C23.6246 18.9354 23.8255 18.9886 24.0676 19.2735C26.1253 21.6905 27.9807 24.256 29.6683 26.9438C29.7441 27.0653 29.8061 27.1951 29.878 27.3458C29.9155 27.4245 29.9558 27.5088 30.0021 27.6006C29.2204 27.9976 28.446 28.3912 27.6757 28.7828L25.9707 29.6498L25.6983 29.7883L24.4972 30.399C24.5013 30.4144 24.5055 30.4296 24.5097 30.4448L24.5185 30.4763L24.524 30.4965L24.528 30.5117C25.8868 30.1172 27.245 29.7233 28.6297 29.3218L30.7284 28.7131L32.1286 28.0886C33.9048 27.3501 35.6211 26.4837 37.252 25.4601C37.1564 25.144 37.0826 24.817 37.0328 24.4805C36.956 23.9627 36.9399 23.4498 36.9791 22.9492C36.3119 23.4776 35.6251 23.9833 34.9221 24.4699C34.1071 25.0343 33.2732 25.5709 32.459 26.0948L32.4552 26.0972C32.0904 26.332 31.7296 26.5641 31.3763 26.7951L30.1064 24.9566C28.5098 22.6452 26.9381 20.3697 25.3537 18.0742C28.7539 16.2059 31.6891 13.7447 34.2154 10.7221L34.2156 10.7232C34.2785 10.7679 34.3352 10.8076 34.3874 10.844L34.388 10.8444C34.5037 10.9253 34.5972 10.9906 34.6855 11.0608C36.9991 12.8975 39.0132 15.0103 40.7313 17.4045C41.3449 17.1016 42.015 16.8877 42.7278 16.7816C43.817 16.6195 44.884 16.7273 45.8614 17.055C46.6833 15.78 47.4097 14.4493 48.0329 13.057C48.0701 12.9736 48.1219 12.8967 48.1726 12.8214C48.1973 12.7849 48.2217 12.7487 48.2441 12.7123C48.2735 12.7258 48.2981 12.7351 48.3185 12.7428C48.3523 12.7555 48.3742 12.7638 48.3863 12.7796C49.4837 14.2175 50.4213 15.7425 51.2009 17.3525C51.2104 17.3084 51.2198 17.2641 51.2292 17.2197L52.0804 13.2035ZM17.3203 3.9958C16.1313 4.33868 13.0706 5.95754 11.9983 6.82301C16.745 9.12309 20.4442 12.6173 23.8837 16.4936C26.9937 14.5298 29.6312 12.1161 31.7229 9.06391C31.6871 9.03351 31.654 9.00285 31.6219 8.97317C31.5565 8.91266 31.4953 8.85608 31.4252 8.81409C27.2066 6.29474 22.6205 4.8071 17.8093 3.95786C17.6526 3.93093 17.4746 3.95101 17.3203 3.9958ZM45.4509 9.54898C43.3468 7.53625 40.971 5.92316 38.3285 4.6988L38.3275 4.70006C37.6168 5.83294 36.9189 6.94434 36.2108 8.07204L36.194 8.09879L36.193 8.1003L35.688 8.90464C38.5645 10.9601 40.9676 13.4973 43.0498 16.6157C43.2301 16.246 43.4112 15.893 43.5873 15.5495C43.974 14.7958 44.3372 14.0877 44.6184 13.3485C44.9298 12.5275 45.1428 11.6688 45.3555 10.8115C45.4194 10.554 45.4832 10.2966 45.5497 10.0404C45.5888 9.89058 45.5525 9.64581 45.4509 9.54898ZM20.5969 3.03388C24.8877 3.80399 29.0239 5.01535 32.9738 7.18949C33.5926 5.8816 34.1751 4.64989 34.7946 3.33963C30.0246 1.91685 25.3351 1.82823 20.5969 3.03388Z" fill="#328BF1"/>
    <path d="M112.599 26.3161C111.928 25.7644 112.155 26.1756 111.604 25.5415L110.42 26.4852C110.815 27.1703 110.465 26.8726 111.047 27.6007C111.628 28.3288 112.327 29.0447 113.142 29.7485L114.807 28.0119C114.001 27.4435 113.265 26.8782 112.599 26.3161Z" fill="#133570"/>
    <path d="M71.9856 13.2261V27.2447H68.9043V13.2261H71.9856Z" fill="#133570"/>
    <path d="M79.4251 12.9619C80.1143 12.9619 80.8644 13.0026 81.6752 13.0838C82.4861 13.1516 83.2767 13.3006 84.047 13.5308L83.8443 15.5828C83.2496 15.5693 82.5537 15.5557 81.7563 15.5422C80.959 15.5286 80.1751 15.5219 79.4048 15.5219C79.0264 15.5219 78.7021 15.5354 78.4318 15.5625C78.175 15.576 77.9655 15.6302 77.8034 15.725C77.6412 15.8063 77.5263 15.935 77.4587 16.1111C77.3912 16.2871 77.3574 16.5309 77.3574 16.8425C77.3574 17.3165 77.4655 17.6619 77.6817 17.8786C77.9115 18.0953 78.2966 18.2917 78.8372 18.4678L81.5333 19.3415C82.655 19.7207 83.4321 20.2354 83.8645 20.8855C84.297 21.5357 84.5132 22.389 84.5132 23.4455C84.5132 24.2446 84.4186 24.9083 84.2294 25.4365C84.0402 25.9648 83.7429 26.3779 83.3375 26.6759C82.9321 26.9738 82.3982 27.1838 81.736 27.3057C81.0738 27.4411 80.263 27.5089 79.3034 27.5089C78.844 27.5089 78.1885 27.475 77.3371 27.4073C76.4857 27.3531 75.5127 27.2041 74.418 26.9603L74.6207 24.7661C75.4181 24.7796 76.1073 24.7999 76.6884 24.827C77.283 24.8406 77.7898 24.8541 78.2088 24.8677C78.6277 24.8677 78.9926 24.8677 79.3034 24.8677C79.844 24.8677 80.263 24.8338 80.5603 24.7661C80.8711 24.6983 81.0873 24.5629 81.209 24.3597C81.3306 24.1566 81.3914 23.8654 81.3914 23.4861C81.3914 23.161 81.3441 22.9037 81.2495 22.7141C81.1684 22.5109 81.0265 22.3551 80.8238 22.2468C80.6346 22.1249 80.3711 22.0165 80.0332 21.9217L77.1952 20.9465C76.1276 20.5537 75.3708 20.039 74.9248 19.4024C74.4788 18.7658 74.2558 17.926 74.2558 16.8831C74.2558 16.0704 74.3504 15.4135 74.5396 14.9124C74.7423 14.3977 75.0464 13.9981 75.4519 13.7137C75.8708 13.4292 76.4046 13.2328 77.0533 13.1245C77.7155 13.0161 78.5061 12.9619 79.4251 12.9619Z" fill="#133570"/>
    <path d="M92.9247 13.2261V27.2447H89.8231V13.2261H92.9247ZM97.1411 13.2261V15.6641H85.6269V13.2261H97.1411Z" fill="#133570"/>
    <path d="M101.977 13.2261V27.2447H98.8959V13.2261H101.977Z" fill="#133570"/>
    <path d="M110.369 12.9416C111.478 12.9416 112.417 13.0635 113.187 13.3073C113.958 13.5376 114.579 13.9304 115.052 14.4857C115.525 15.0275 115.863 15.7724 116.066 16.7206C116.282 17.6551 116.39 18.8268 116.39 20.2354C116.39 21.644 116.282 22.8224 116.066 23.7705C115.863 24.7051 115.525 25.4501 115.052 26.0054C114.579 26.5472 113.958 26.94 113.187 27.1838C112.417 27.414 111.478 27.5292 110.369 27.5292C109.261 27.5292 108.322 27.414 107.552 27.1838C106.781 26.94 106.16 26.5472 105.687 26.0054C105.214 25.4501 104.869 24.7051 104.653 23.7705C104.45 22.8224 104.349 21.644 104.349 20.2354C104.349 18.8268 104.45 17.6551 104.653 16.7206C104.869 15.7724 105.214 15.0275 105.687 14.4857C106.16 13.9304 106.781 13.5376 107.552 13.3073C108.322 13.0635 109.261 12.9416 110.369 12.9416ZM110.369 15.4C109.667 15.4 109.113 15.5422 108.707 15.8266C108.302 16.1111 108.018 16.6054 107.856 17.3098C107.694 18.0005 107.613 18.9757 107.613 20.2354C107.613 21.4815 107.694 22.4567 107.856 23.161C108.018 23.8654 108.302 24.3597 108.707 24.6442C109.113 24.9286 109.667 25.0708 110.369 25.0708C111.072 25.0708 111.62 24.9286 112.011 24.6442C112.417 24.3597 112.701 23.8654 112.863 23.161C113.039 22.4567 113.126 21.4815 113.126 20.2354C113.126 18.9757 113.039 18.0005 112.863 17.3098C112.701 16.6054 112.417 16.1111 112.011 15.8266C111.62 15.5422 111.072 15.4 110.369 15.4Z" fill="#133570"/>
    <path d="M124.062 13.0635C125.279 13.0635 126.245 13.1719 126.961 13.3886C127.691 13.5918 128.218 13.9575 128.542 14.4857C128.867 15.0139 129.029 15.7589 129.029 16.7206C129.029 17.7229 128.833 18.4881 128.441 19.0164C128.063 19.5311 127.434 19.8291 126.556 19.9103V20.0322C127.637 20.127 128.394 20.4927 128.826 21.1293C129.259 21.7524 129.475 22.626 129.475 23.7502C129.475 24.7119 129.306 25.4568 128.968 25.9851C128.644 26.5133 128.13 26.8858 127.427 27.1025C126.738 27.3057 125.833 27.4073 124.711 27.4073C123.806 27.4073 123.015 27.4005 122.339 27.387C121.677 27.387 121.062 27.3734 120.495 27.3463C119.927 27.3192 119.346 27.2854 118.751 27.2447L119.055 25.0911C119.38 25.1047 120.001 25.1182 120.92 25.1318C121.853 25.1453 122.934 25.1521 124.164 25.1521C124.731 25.1521 125.177 25.0979 125.502 24.9896C125.826 24.8812 126.049 24.6848 126.171 24.4004C126.306 24.1024 126.373 23.6825 126.373 23.1407C126.373 22.5583 126.306 22.1181 126.171 21.8201C126.036 21.5086 125.799 21.2919 125.461 21.17C125.137 21.0481 124.684 20.9803 124.103 20.9668H119.035V18.9961H124.062C124.562 18.9825 124.954 18.9283 125.238 18.8335C125.535 18.7387 125.745 18.5559 125.867 18.285C125.988 18.0141 126.049 17.6348 126.049 17.1472C126.049 16.6461 125.981 16.2668 125.846 16.0095C125.725 15.7386 125.508 15.5557 125.198 15.4609C124.887 15.3661 124.454 15.3187 123.9 15.3187C123.143 15.3187 122.474 15.3187 121.893 15.3187C121.312 15.3187 120.792 15.3255 120.332 15.339C119.873 15.339 119.447 15.3526 119.055 15.3797L118.751 13.2261C119.292 13.1719 119.812 13.138 120.312 13.1245C120.826 13.0974 121.38 13.0838 121.974 13.0838C122.569 13.0703 123.265 13.0635 124.062 13.0635ZM121.792 13.2261V27.2447H118.751V13.2261H121.792Z" fill="#133570"/>
    <path d="M137.293 12.9416C138.401 12.9416 139.34 13.0635 140.11 13.3073C140.881 13.5376 141.496 13.9304 141.955 14.4857C142.428 15.0275 142.773 15.7724 142.989 16.7206C143.205 17.6551 143.313 18.8268 143.313 20.2354C143.313 21.644 143.205 22.8224 142.989 23.7705C142.773 24.7051 142.428 25.4501 141.955 26.0054C141.496 26.5472 140.881 26.94 140.11 27.1838C139.34 27.414 138.401 27.5292 137.293 27.5292C136.184 27.5292 135.245 27.414 134.475 27.1838C133.705 26.94 133.083 26.5472 132.61 26.0054C132.137 25.4501 131.792 24.7051 131.576 23.7705C131.36 22.8224 131.252 21.644 131.252 20.2354C131.252 18.8268 131.36 17.6551 131.576 16.7206C131.792 15.7724 132.137 15.0275 132.61 14.4857C133.083 13.9304 133.705 13.5376 134.475 13.3073C135.245 13.0635 136.184 12.9416 137.293 12.9416ZM137.293 15.4C136.576 15.4 136.016 15.5422 135.61 15.8266C135.218 16.1111 134.934 16.6054 134.759 17.3098C134.596 18.0005 134.515 18.9757 134.515 20.2354C134.515 21.4815 134.596 22.4567 134.759 23.161C134.934 23.8654 135.218 24.3597 135.61 24.6442C136.016 24.9286 136.576 25.0708 137.293 25.0708C137.995 25.0708 138.543 24.9286 138.935 24.6442C139.34 24.3597 139.624 23.8654 139.786 23.161C139.962 22.4567 140.05 21.4815 140.05 20.2354C140.05 18.9757 139.962 18.0005 139.786 17.3098C139.624 16.6054 139.34 16.1111 138.935 15.8266C138.543 15.5422 137.995 15.4 137.293 15.4Z" fill="#133570"/>
    <path d="M148.735 13.2261V23.7096C148.735 24.0482 148.83 24.3056 149.019 24.4816C149.208 24.6577 149.479 24.7458 149.83 24.7458H154.716L154.857 27.0822C153.898 27.1906 152.891 27.2515 151.837 27.265C150.796 27.2921 149.756 27.3057 148.715 27.3057C147.702 27.3057 146.931 27.0348 146.404 26.493C145.891 25.9377 145.634 25.2334 145.634 24.38V13.2261H148.735Z" fill="#133570"/>
    <path d="M159.604 13.2261V23.7096C159.604 24.0482 159.698 24.3056 159.887 24.4816C160.077 24.6577 160.347 24.7458 160.698 24.7458H165.584L165.726 27.0822C164.766 27.1906 163.759 27.2515 162.705 27.265C161.665 27.2921 160.624 27.3057 159.583 27.3057C158.57 27.3057 157.8 27.0348 157.272 26.493C156.759 25.9377 156.502 25.2334 156.502 24.38V13.2261H159.604Z" fill="#133570"/>
    <path d="M170.512 13.2261V27.2447H167.431V13.2261H170.512Z" fill="#133570"/>
    <path d="M188.814 13.2261L185.165 18.8742C185.016 19.118 184.854 19.3279 184.678 19.504C184.503 19.6801 184.327 19.8291 184.151 19.951V20.0119C184.341 20.1203 184.543 20.2828 184.76 20.4995C184.976 20.7162 185.151 20.9465 185.287 21.1903L189.057 27.2447H185.591L181.273 19.9103L185.469 13.2261H188.814ZM180.807 13.2261V17.1879C180.807 17.6484 180.773 18.1089 180.705 18.5694C180.638 19.0164 180.53 19.4566 180.381 19.89C180.489 20.3099 180.584 20.7433 180.665 21.1903C180.759 21.6237 180.807 22.0301 180.807 22.4093V27.2447H177.725V13.2261H180.807ZM182.388 18.8742V21.0278H179.874V18.8742H182.388Z" fill="#133570"/>
    <path d="M197.243 13.2261C197.499 13.2261 197.722 13.3006 197.912 13.4495C198.114 13.5985 198.249 13.7949 198.317 14.0387L202.371 27.2447H199.209L196.351 16.9441C196.297 16.7138 196.243 16.4835 196.188 16.2533C196.134 16.0095 196.087 15.7792 196.047 15.5625H195.499C195.459 15.7792 195.411 16.0095 195.357 16.2533C195.317 16.4835 195.263 16.7138 195.195 16.9441L192.337 27.2447H189.154L193.229 14.0387C193.296 13.7949 193.425 13.5985 193.614 13.4495C193.817 13.3006 194.046 13.2261 194.303 13.2261H197.243ZM199.391 21.2106V23.5471H192.134V21.2106H199.391Z" fill="#133570"/>
    <path d="M209.29 13.0229C210.399 13.0229 211.331 13.1448 212.088 13.3886C212.858 13.6189 213.473 14.0049 213.933 14.5467C214.406 15.0884 214.75 15.8266 214.966 16.7612C215.183 17.6822 215.291 18.8403 215.291 20.2354C215.291 21.6305 215.183 22.7953 214.966 23.7299C214.75 24.6509 214.406 25.3823 213.933 25.9241C213.473 26.4659 212.858 26.8587 212.088 27.1025C211.331 27.3328 210.399 27.4479 209.29 27.4479C208.223 27.4479 207.243 27.4276 206.351 27.387C205.459 27.3463 204.608 27.2989 203.797 27.2447L205.094 24.9489C205.608 24.976 206.216 25.0031 206.919 25.0302C207.635 25.0437 208.425 25.0505 209.29 25.0505C209.98 25.0505 210.52 24.9151 210.912 24.6442C211.318 24.3597 211.601 23.8654 211.764 23.161C211.939 22.4567 212.027 21.4815 212.027 20.2354C212.027 18.9893 211.939 18.0141 211.764 17.3098C211.601 16.6054 211.318 16.1111 210.912 15.8266C210.52 15.5422 209.98 15.4 209.29 15.4C208.466 15.4 207.729 15.4067 207.081 15.4203C206.432 15.4203 205.797 15.4203 205.175 15.4203L203.797 13.2261C204.608 13.1719 205.452 13.1245 206.331 13.0838C207.223 13.0432 208.209 13.0229 209.29 13.0229ZM206.898 13.2261V27.2447H203.797V13.2261H206.898Z" fill="#133570"/>
    <path d="M223.027 13.0229C224.257 13.0229 225.25 13.1516 226.007 13.4089C226.777 13.6527 227.338 14.0794 227.689 14.6889C228.054 15.2848 228.237 16.1178 228.237 17.1879C228.237 17.838 228.149 18.4136 227.973 18.9148C227.811 19.4024 227.534 19.7952 227.142 20.0932C226.75 20.3912 226.216 20.5808 225.54 20.662V20.7636C225.784 20.8043 226.034 20.8991 226.29 21.0481C226.561 21.1971 226.811 21.4205 227.041 21.7185C227.27 22.003 227.439 22.389 227.547 22.8766L228.764 27.2447H225.5L224.425 22.9782C224.304 22.5177 224.121 22.1994 223.878 22.0233C223.648 21.8472 223.324 21.7592 222.905 21.7592C221.986 21.7592 221.209 21.7592 220.574 21.7592C219.952 21.7456 219.425 21.7321 218.993 21.7185C218.574 21.705 218.195 21.6914 217.857 21.6779L217.918 19.4227H222.966C223.506 19.4227 223.932 19.3685 224.243 19.2602C224.567 19.1383 224.79 18.9283 224.912 18.6304C225.047 18.3324 225.115 17.9193 225.115 17.391C225.115 16.8492 225.047 16.4361 224.912 16.1517C224.79 15.8537 224.567 15.6505 224.243 15.5422C223.932 15.4203 223.506 15.3593 222.966 15.3593C221.696 15.3593 220.621 15.3661 219.743 15.3797C218.864 15.3932 218.263 15.4135 217.939 15.4406L217.634 13.2261C218.202 13.1583 218.736 13.1109 219.236 13.0838C219.736 13.0567 220.283 13.0432 220.878 13.0432C221.473 13.0297 222.189 13.0229 223.027 13.0229ZM220.696 13.2261V27.2447H217.634V13.2261H220.696Z" fill="#133570"/>
    <path d="M233.821 13.2261V23.7096C233.821 24.0482 233.915 24.3056 234.104 24.4816C234.294 24.6577 234.564 24.7458 234.915 24.7458H239.801L239.943 27.0822C238.983 27.1906 237.976 27.2515 236.922 27.265C235.882 27.2921 234.841 27.3057 233.8 27.3057C232.787 27.3057 232.016 27.0348 231.489 26.493C230.976 25.9377 230.719 25.2334 230.719 24.38V13.2261H233.821Z" fill="#133570"/>
    <path d="M248.317 13.2261C248.574 13.2261 248.797 13.3006 248.986 13.4495C249.189 13.5985 249.324 13.7949 249.392 14.0387L253.446 27.2447H250.284L247.425 16.9441C247.371 16.7138 247.317 16.4835 247.263 16.2533C247.209 16.0095 247.162 15.7792 247.121 15.5625H246.574C246.533 15.7792 246.486 16.0095 246.432 16.2533C246.392 16.4835 246.338 16.7138 246.27 16.9441L243.412 27.2447H240.229L244.304 14.0387C244.371 13.7949 244.5 13.5985 244.689 13.4495C244.892 13.3006 245.121 13.2261 245.378 13.2261H248.317ZM250.466 21.2106V23.5471H243.209V21.2106H250.466Z" fill="#133570"/>
    <path d="M260.264 13.0229C261.494 13.0229 262.487 13.1516 263.244 13.4089C264.014 13.6527 264.575 14.0794 264.926 14.6889C265.291 15.2848 265.474 16.1178 265.474 17.1879C265.474 17.838 265.386 18.4136 265.21 18.9148C265.048 19.4024 264.771 19.7952 264.379 20.0932C263.987 20.3912 263.453 20.5808 262.778 20.662V20.7636C263.021 20.8043 263.271 20.8991 263.528 21.0481C263.798 21.1971 264.048 21.4205 264.278 21.7185C264.507 22.003 264.676 22.389 264.784 22.8766L266.001 27.2447H262.737L261.663 22.9782C261.541 22.5177 261.359 22.1994 261.115 22.0233C260.886 21.8472 260.561 21.7592 260.142 21.7592C259.223 21.7592 258.446 21.7592 257.811 21.7592C257.189 21.7456 256.662 21.7321 256.23 21.7185C255.811 21.705 255.432 21.6914 255.095 21.6779L255.155 19.4227H260.203C260.744 19.4227 261.169 19.3685 261.48 19.2602C261.804 19.1383 262.027 18.9283 262.149 18.6304C262.284 18.3324 262.352 17.9193 262.352 17.391C262.352 16.8492 262.284 16.4361 262.149 16.1517C262.027 15.8537 261.804 15.6505 261.48 15.5422C261.169 15.4203 260.744 15.3593 260.203 15.3593C258.933 15.3593 257.858 15.3661 256.98 15.3797C256.101 15.3932 255.5 15.4135 255.176 15.4406L254.872 13.2261C255.439 13.1583 255.973 13.1109 256.473 13.0838C256.973 13.0567 257.52 13.0432 258.115 13.0432C258.71 13.0297 259.426 13.0229 260.264 13.0229ZM257.933 13.2261V27.2447H254.872V13.2261H257.933Z" fill="#133570"/>
    <path d="M70.0619 33.8429V42.9397H68.9043V33.8429H70.0619ZM74.3896 37.5739V38.5759H69.9566V37.5739H74.3896ZM75.4025 33.8429V42.9397H74.245V33.8429H75.4025Z" fill="#328BF1"/>
    <path d="M81.2426 33.8429C81.3479 33.8429 81.44 33.8737 81.5189 33.9352C81.5978 33.9879 81.6504 34.0626 81.6767 34.1593L84.597 42.9397H83.3999L81.0453 35.4777C81.0102 35.3546 80.9708 35.2316 80.9269 35.1085C80.8919 34.9767 80.8568 34.8537 80.8217 34.7394H80.4534C80.4183 34.8537 80.3832 34.9767 80.3481 35.1085C80.3131 35.2316 80.2736 35.3546 80.2298 35.4777L77.8751 42.9397H76.6781L79.5983 34.1593C79.6247 34.0626 79.6773 33.9879 79.7562 33.9352C79.8351 33.8737 79.9272 33.8429 80.0324 33.8429H81.2426ZM82.9264 39.09V40.092H78.3224V39.09H82.9264Z" fill="#328BF1"/>
    <path d="M94.4505 33.8429C94.7662 33.8429 94.9241 34.0055 94.9241 34.3307L95.3055 42.9397H94.1479L93.8191 34.8053H93.5428L91.5171 41.5158C91.4469 41.7795 91.2803 41.9114 91.0172 41.9114H89.978C89.7062 41.9114 89.5308 41.7795 89.4519 41.5158L87.4261 34.8053H87.163L86.8473 42.9397H85.6897L86.0449 34.3307C86.0624 34.0055 86.2247 33.8429 86.5316 33.8429H87.847C88.0926 33.8429 88.2548 33.9747 88.3337 34.2384L90.0306 39.7888C90.1008 39.9909 90.1578 40.1931 90.2017 40.3952C90.2543 40.5974 90.3113 40.8039 90.3727 41.0149H90.6094C90.6708 40.8039 90.7278 40.5974 90.7804 40.3952C90.8331 40.1931 90.8901 39.9821 90.9514 39.7624L92.6484 34.2384C92.7185 33.9747 92.8851 33.8429 93.1482 33.8429H94.4505Z" fill="#328BF1"/>
    <path d="M99.6327 33.8429V41.028C99.6327 41.696 99.4792 42.2014 99.1723 42.5442C98.8741 42.887 98.44 43.0583 97.87 43.0583C97.756 43.0583 97.6201 43.0496 97.4622 43.032C97.3131 43.0232 97.1641 43.0056 97.015 42.9792C96.8747 42.9529 96.7563 42.9221 96.6598 42.887L96.7913 42.0696H97.4491C98.1331 42.0696 98.4751 41.7356 98.4751 41.0676V33.8429H99.6327Z" fill="#328BF1"/>
    <path d="M105.432 33.8429C105.537 33.8429 105.629 33.8737 105.708 33.9352C105.787 33.9879 105.839 34.0626 105.866 34.1593L108.786 42.9397H107.589L105.234 35.4777C105.199 35.3546 105.16 35.2316 105.116 35.1085C105.081 34.9767 105.046 34.8537 105.011 34.7394H104.642C104.607 34.8537 104.572 34.9767 104.537 35.1085C104.502 35.2316 104.463 35.3546 104.419 35.4777L102.064 42.9397H100.867L103.787 34.1593C103.814 34.0626 103.866 33.9879 103.945 33.9352C104.024 33.8737 104.116 33.8429 104.221 33.8429H105.432ZM107.115 39.09V40.092H102.511V39.09H107.115Z" fill="#328BF1"/>
    <path d="M118.64 33.8429C118.955 33.8429 119.113 34.0055 119.113 34.3307L119.495 42.9397H118.337L118.008 34.8053H117.732L115.706 41.5158C115.636 41.7795 115.469 41.9114 115.206 41.9114H114.167C113.895 41.9114 113.72 41.7795 113.641 41.5158L111.615 34.8053H111.352L111.036 42.9397H109.879L110.234 34.3307C110.251 34.0055 110.414 33.8429 110.721 33.8429H112.036C112.282 33.8429 112.444 33.9747 112.523 34.2384L114.22 39.7888C114.29 39.9909 114.347 40.1931 114.391 40.3952C114.443 40.5974 114.5 40.8039 114.562 41.0149H114.798C114.86 40.8039 114.917 40.5974 114.969 40.3952C115.022 40.1931 115.079 39.9821 115.14 39.7624L116.837 34.2384C116.908 33.9747 117.074 33.8429 117.337 33.8429H118.64Z" fill="#328BF1"/>
    <path d="M122.756 33.8429V42.9397H121.599V33.8429H122.756Z" fill="#328BF1"/>
    <path d="M131.224 33.8429L128.159 39.8547H127.12L124.042 33.8429H125.278L127.186 37.6794C127.264 37.8464 127.335 38.0178 127.396 38.1935C127.466 38.3693 127.532 38.5407 127.593 38.7077H127.685C127.747 38.5407 127.813 38.3693 127.883 38.1935C127.953 38.0178 128.023 37.8508 128.093 37.6926L130.001 33.8429H131.224ZM128.212 39.0373V42.9397H127.054V39.0373H128.212Z" fill="#328BF1"/>
    <path d="M135.376 33.8429C135.481 33.8429 135.573 33.8737 135.652 33.9352C135.731 33.9879 135.784 34.0626 135.81 34.1593L138.73 42.9397H137.533L135.178 35.4777C135.143 35.3546 135.104 35.2316 135.06 35.1085C135.025 34.9767 134.99 34.8537 134.955 34.7394H134.586C134.551 34.8537 134.516 34.9767 134.481 35.1085C134.446 35.2316 134.407 35.3546 134.363 35.4777L132.008 42.9397H130.811L133.731 34.1593C133.758 34.0626 133.81 33.9879 133.889 33.9352C133.968 33.8737 134.06 33.8429 134.166 33.8429H135.376ZM137.059 39.09V40.092H132.455V39.09H137.059Z" fill="#328BF1"/>
    <path d="M142.485 33.8429V42.9397H141.328V33.8429H142.485ZM145.419 33.8429V34.8712H138.408V33.8429H145.419Z" fill="#328BF1"/>
    <path d="M148.037 33.8429V42.9397H146.88V33.8429H148.037Z" fill="#328BF1"/>
</svg>
