<svg width="38" height="32" viewBox="0 0 38 32" fill="none" xmlns="http://www.w3.org/2000/svg">
<g clip-path="url(#clip0_89_96)">
<path d="M37.601 14.7C37.401 13.7 35.801 12.5 33.401 11.6C35.601 10.5 36.401 10.2 36.401 10.2L36.301 9.8C36.301 9.8 35.601 9.8 31.801 11C30.301 10.6 28.601 10.2 26.901 10C23.901 9.6 21.101 9.5 19.101 9.5V0.5C19.101 0.5 17.901 1 17.401 1.2C16.801 1.5 16.901 2 16.901 2V2.4V9.5C16.601 9.5 16.401 9.5 16.401 9.5H16.301V4.2C16.301 4.2 15.101 4.7 14.601 4.9C14.001 5.2 14.101 5.7 14.101 5.7V6.1V9.6C6.80098 10.1 3.20098 11.9 2.00098 12.6C0.700979 13.3 -1.39902 15.2 1.60098 17.3C4.10098 19 8.80098 19.9 10.201 20.1C7.10098 21.7 5.30098 22.8 5.30098 22.8L5.50098 23.2C5.50098 23.2 12.201 20.6 19.601 20.6H19.701C22.801 20.6 26.201 20.2 28.801 19.7C35.501 18.6 37.901 16.5 37.601 14.7ZM12.001 19.3C12.001 19.3 6.80097 18.7 4.20098 17C1.60098 15.3 3.40098 13.8 4.50098 13.2C5.30098 12.8 7.50098 11.7 11.501 11.1V11.3V11.7C11.501 11.7 11.501 16.4 11.501 17.9C11.501 18.5 11.901 18.7 12.301 18.5C12.701 18.3 13.101 18.2 13.301 18.1C13.801 17.9 13.701 17.5 13.701 17.5V10.8C13.901 10.8 14.101 10.8 14.301 10.7V17.6C14.301 17.6 15.601 17 16.101 16.8C16.601 16.6 16.501 16.2 16.501 16.2V10.6C16.701 10.6 16.801 10.6 17.001 10.6C17.001 10.6 17.001 10.6 17.101 10.6V16.4C17.101 16.4 18.401 15.8 18.901 15.6C19.401 15.4 19.301 15 19.301 15V10.5C20.901 10.5 23.301 10.6 25.901 10.9C27.301 11.1 28.701 11.4 30.001 11.7C28.401 12.3 26.501 13 24.101 13.9C19.501 15.7 15.401 17.6 12.301 19.2C12.001 19.3 12.001 19.3 12.001 19.3ZM27.501 19C25.901 19.3 23.801 19.4 21.801 19.5C22.001 19.2 24.601 16.1 29.601 13.5C30.401 13.1 31.101 12.7 31.801 12.4C33.601 13.1 34.801 13.9 35.001 14.7C35.201 16.3 33.101 18 27.501 19Z" fill="#4274D4"/>
<path d="M2.20117 31.9V25.3H3.50117L5.80117 29.5L8.20117 25.3H9.40117V31.9H8.20117V27.7L6.30117 31.2H5.40117L3.50117 27.7V31.9H2.20117Z" fill="#4274D4"/>
<path d="M14.9 30.2C15.4 30.2 15.8 30 16.1 29.8C16.4 29.5 16.6 29.1 16.6 28.7C16.6 28.3 16.4 27.9 16.1 27.6C15.8 27.3 15.3 27.1 14.9 27.1V30.2ZM13.6 27.1C13.1 27.1 12.7 27.2 12.4 27.6C12.1 27.9 11.9 28.3 11.9 28.7C11.9 29.1 12.1 29.5 12.4 29.8C12.7 30.1 13.2 30.2 13.6 30.2V27.1ZM13.6 25.2H14.9V25.9C15.8 25.9 16.5 26.2 17.1 26.7C17.7 27.2 18 27.9 18 28.7C18 29.5 17.7 30.1 17.1 30.7C16.5 31.2 15.8 31.5 14.9 31.5V32H13.6V31.3C12.7 31.3 12 31 11.4 30.5C10.8 30 10.5 29.3 10.5 28.5C10.5 27.7 10.8 27.1 11.4 26.5C12 26 12.7 25.7 13.6 25.7V25.2Z" fill="#4274D4"/>
<path d="M26.3 30.2C26.7 29.8 26.9 29.3 26.9 28.6C26.9 28 26.7 27.4 26.3 27C25.9 26.6 25.4 26.4 24.8 26.4C24.2 26.4 23.7 26.6 23.3 27C22.9 27.4 22.7 27.9 22.7 28.6C22.7 29.2 22.9 29.8 23.3 30.2C23.7 30.6 24.2 30.8 24.8 30.8C25.4 30.8 25.9 30.6 26.3 30.2ZM19.1 25.3H20.4V28H21.4C21.5 27.2 21.9 26.5 22.5 26C23.1 25.5 23.9 25.2 24.7 25.2C25.7 25.2 26.5 25.5 27.1 26.2C27.8 26.8 28.1 27.7 28.1 28.6C28.1 29.6 27.8 30.4 27.1 31C26.5 31.6 25.6 32 24.7 32C23.8 32 23.1 31.7 22.4 31.2C21.8 30.7 21.4 30 21.3 29.1H20.3V31.8H19V25.3H19.1Z" fill="#4274D4"/>
<path d="M32.0012 27.1L31.0012 29.5H33.0012L32.0012 27.1ZM28.7012 31.9L31.5012 25.3H32.5012L35.3012 31.9H34.0012L33.5012 30.7H30.5012L30.0012 31.9H28.7012Z" fill="#4274D4"/>
</g>
<defs>
<clipPath id="clip0_89_96">
<rect width="38" height="32" fill="white"/>
</clipPath>
</defs>
</svg>
