<svg width="305" height="86" viewBox="0 0 305 86" fill="none" xmlns="http://www.w3.org/2000/svg">
<g clip-path="url(#clip0_89_96)">
<path d="M100.928 39.5063C100.392 36.8188 96.0968 33.5938 89.6547 31.175C95.56 28.2188 97.7074 27.4125 97.7074 27.4125L97.4389 26.3375C97.4389 26.3375 95.56 26.3375 85.36 29.5625C81.3337 28.4875 76.7705 27.4125 72.2074 26.875C64.1547 25.8 56.6389 25.5312 51.2705 25.5312V1.34375C51.2705 1.34375 48.0495 2.6875 46.7074 3.225C45.0968 4.03125 45.3653 5.375 45.3653 5.375V6.45V25.5312C44.56 25.5312 44.0231 25.5312 44.0231 25.5312H43.7547V11.2875C43.7547 11.2875 40.5337 12.6312 39.1916 13.1687C37.581 13.975 37.8495 15.3187 37.8495 15.3187V16.3938V25.8C18.2548 27.1438 8.5916 31.9813 5.37055 33.8625C1.88106 35.7438 -3.75577 40.85 4.29686 46.4937C11.0074 51.0625 23.6232 53.4813 27.381 54.0188C19.06 58.3188 14.2284 61.275 14.2284 61.275L14.7653 62.35C14.7653 62.35 32.7495 55.3625 52.6126 55.3625H52.881C61.2021 55.3625 70.3284 54.2875 77.3074 52.9438C95.2916 49.9875 101.734 44.3438 100.928 39.5063ZM32.2126 51.8687C32.2126 51.8687 18.2547 50.2563 11.2758 45.6875C4.29686 41.1187 9.12844 37.0875 12.0811 35.475C14.2284 34.4 20.1337 31.4438 30.8705 29.8313V30.3687V31.4438C30.8705 31.4438 30.8705 44.075 30.8705 48.1062C30.8705 49.7187 31.9442 50.2563 33.0179 49.7188C34.0916 49.1812 35.1653 48.9125 35.7021 48.6438C37.0442 48.1063 36.7758 47.0312 36.7758 47.0312V29.025C37.3126 29.025 37.8495 29.025 38.3863 28.7562V47.3C38.3863 47.3 41.8758 45.6875 43.2179 45.15C44.56 44.6125 44.2916 43.5375 44.2916 43.5375V28.4875C44.8284 28.4875 45.0968 28.4875 45.6337 28.4875C45.6337 28.4875 45.6337 28.4875 45.9021 28.4875V44.075C45.9021 44.075 49.3916 42.4625 50.7337 41.925C52.0758 41.3875 51.8074 40.3125 51.8074 40.3125V28.2188C56.1021 28.2188 62.5442 28.4875 69.5231 29.2937C73.281 29.8312 77.0389 30.6375 80.5284 31.4438C76.2337 33.0563 71.1337 34.9375 64.6916 37.3562C52.3442 42.1937 41.3389 47.3 33.0179 51.6C32.2126 51.8688 32.2126 51.8687 32.2126 51.8687ZM73.8179 51.0625C69.5231 51.8688 63.8863 52.1375 58.5179 52.4062C59.0547 51.6 66.0337 43.2687 79.4547 36.2812C81.6021 35.2062 83.481 34.1312 85.36 33.325C90.1916 35.2062 93.4126 37.3563 93.9495 39.5063C94.4863 43.8063 88.8495 48.375 73.8179 51.0625Z" fill="white"/>
<path d="M5.9082 85.7313V67.9938H9.39768L15.5714 79.2813L22.0135 67.9938H25.2345V85.7313H22.0135V74.4438L16.9135 83.85H14.4977L9.39768 74.4438V85.7313H5.9082Z" fill="white"/>
<path d="M39.9941 81.1625C41.3362 81.1625 42.4099 80.625 43.2152 80.0875C44.0204 79.2812 44.5573 78.2062 44.5573 77.1312C44.5573 76.0562 44.0204 74.9812 43.2152 74.175C42.4099 73.3687 41.0678 72.8312 39.9941 72.8312V81.1625ZM36.5046 72.8312C35.1625 72.8312 34.0889 73.1 33.2836 74.175C32.4783 74.9812 31.9415 76.0562 31.9415 77.1312C31.9415 78.2062 32.4783 79.2812 33.2836 80.0875C34.0889 80.8937 35.431 81.1625 36.5046 81.1625V72.8312ZM36.5046 67.725H39.9941V69.6062C42.4099 69.6062 44.2889 70.4125 45.8994 71.7562C47.5099 73.1 48.3152 74.9812 48.3152 77.1312C48.3152 79.2812 47.5099 80.8937 45.8994 82.5062C44.2889 83.85 42.4099 84.6562 39.9941 84.6562V86H36.5046V84.1187C34.0889 84.1187 32.2099 83.3125 30.5994 81.9687C28.9889 80.625 28.1836 78.7437 28.1836 76.5937C28.1836 74.4437 28.9889 72.8312 30.5994 71.2187C32.2099 69.875 34.0889 69.0687 36.5046 69.0687V67.725Z" fill="white"/>
<path d="M70.5947 81.1625C71.6684 80.0875 72.2053 78.7437 72.2053 76.8625C72.2053 75.25 71.6684 73.6375 70.5947 72.5625C69.5211 71.4875 68.1789 70.95 66.5684 70.95C64.9579 70.95 63.6158 71.4875 62.5421 72.5625C61.4684 73.6375 60.9316 74.9812 60.9316 76.8625C60.9316 78.475 61.4684 80.0875 62.5421 81.1625C63.6158 82.2375 64.9579 82.775 66.5684 82.775C68.1789 82.775 69.5211 82.2375 70.5947 81.1625ZM51.2684 67.9937H54.7579V75.25H57.4421C57.7105 73.1 58.7842 71.2187 60.3947 69.875C62.0053 68.5312 64.1526 67.725 66.3 67.725C68.9842 67.725 71.1316 68.5312 72.7421 70.4125C74.6211 72.025 75.4263 74.4437 75.4263 76.8625C75.4263 79.55 74.6211 81.7 72.7421 83.3125C71.1316 84.925 68.7158 86 66.3 86C63.8842 86 62.0053 85.1937 60.1263 83.85C58.5158 82.5062 57.4421 80.625 57.1737 78.2062H54.4895V85.4625H51V67.9937H51.2684Z" fill="white"/>
<path d="M85.897 72.8313L83.2127 79.2813H88.5812L85.897 72.8313ZM77.0391 85.7313L84.5549 67.9938H87.2391L94.7549 85.7313H91.2654L89.9233 82.5063H81.8706L80.5285 85.7313H77.0391Z" fill="white"/>
<path d="M162.664 11.5563C163.469 12.3626 164.543 12.9001 165.885 12.9001C167.227 12.9001 168.301 12.3626 169.106 11.5563C169.911 10.7501 170.448 9.67507 170.448 8.33132C170.448 6.98757 169.911 5.91257 169.106 5.10632C168.301 4.30007 167.227 3.76257 165.885 3.76257C164.543 3.76257 163.469 4.30007 162.664 5.10632C161.859 5.91257 161.322 6.98757 161.322 8.33132C161.322 9.67507 161.859 10.7501 162.664 11.5563ZM170.717 3.22507C172.059 4.56882 172.864 6.18132 172.864 8.33132C172.864 10.4813 172.059 12.0938 170.717 13.4375C169.374 14.7813 167.764 15.5875 165.617 15.5875C163.469 15.5875 161.859 14.7813 160.517 13.4375C159.174 12.0938 158.369 10.4813 158.369 8.33132C158.369 6.18132 159.174 4.56882 160.517 3.22507C161.859 1.88132 163.469 1.07507 165.617 1.07507C167.764 1.34382 169.374 1.88132 170.717 3.22507Z" fill="white"/>
<path d="M185.746 2.41882C186.819 3.22507 187.624 4.03132 188.43 5.10632L186.014 6.18132C185.209 4.83757 183.867 3.76257 182.256 3.76257C180.914 3.76257 179.84 4.30007 179.035 5.10632C178.23 5.91257 177.693 6.98757 177.693 8.33132C177.693 9.67507 178.23 10.7501 179.035 11.5563C179.84 12.3626 180.914 12.9001 182.256 12.9001C183.867 12.9001 185.209 12.0938 186.014 10.7501L188.43 11.8251C187.893 12.9001 187.088 13.975 185.746 14.5125C184.672 15.3188 183.33 15.5875 181.988 15.5875C179.84 15.5875 178.23 14.7813 176.888 13.4375C175.546 12.0938 174.74 10.4813 174.74 8.33132C174.74 6.18132 175.546 4.56882 176.888 3.22507C178.23 1.88132 179.84 1.07507 181.988 1.07507C183.33 1.34382 184.672 1.61257 185.746 2.41882Z" fill="white"/>
<path d="M206.952 11.5563C207.757 12.3626 208.831 12.9001 210.173 12.9001C211.515 12.9001 212.589 12.3626 213.394 11.5563C214.199 10.7501 214.736 9.67507 214.736 8.33132C214.736 6.98757 214.199 5.91257 213.394 5.10632C212.589 4.30007 211.515 3.76257 210.173 3.76257C208.831 3.76257 207.757 4.30007 206.952 5.10632C206.147 5.91257 205.61 6.98757 205.61 8.33132C205.61 9.67507 206.147 10.7501 206.952 11.5563ZM215.273 3.22507C216.615 4.56882 217.421 6.18132 217.421 8.33132C217.421 10.4813 216.615 12.0938 215.273 13.4375C213.931 14.7813 212.321 15.5875 210.173 15.5875C208.026 15.5875 206.415 14.7813 205.073 13.4375C203.731 12.0938 202.926 10.4813 202.926 8.33132C202.926 6.18132 203.731 4.56882 205.073 3.22507C206.415 1.88132 208.026 1.07507 210.173 1.07507C212.052 1.34382 213.931 1.88132 215.273 3.22507Z" fill="white"/>
<path d="M222.249 9.40618V12.8999H226.543C227.617 12.8999 228.154 12.0937 228.154 11.2874C228.154 10.2124 227.349 9.67493 226.543 9.67493H222.249V9.40618ZM222.249 4.03118V6.98743H226.275C227.08 6.98743 227.886 6.44993 227.886 5.37493C227.886 4.56868 227.349 3.76243 226.275 3.76243H222.249V4.03118ZM219.564 15.3187V1.61243H226.275C227.617 1.61243 228.422 1.88118 229.228 2.68743C230.033 3.49368 230.57 4.29993 230.57 5.37493C230.57 6.44993 230.033 7.52493 229.228 8.06243C230.57 8.86868 231.107 9.94368 231.107 11.2874C231.107 12.3624 230.57 13.4374 229.764 13.975C228.959 14.7812 227.886 15.05 226.543 15.05H219.564V15.3187Z" fill="white"/>
<path d="M243.73 2.41882C244.804 3.22507 245.609 4.03132 246.414 5.10632L243.998 6.18132C243.193 4.83757 241.851 3.76257 240.24 3.76257C238.898 3.76257 237.825 4.30007 237.019 5.10632C236.214 5.91257 235.677 6.98757 235.677 8.33132C235.677 9.67507 236.214 10.7501 237.019 11.5563C237.825 12.3626 238.898 12.9001 240.24 12.9001C241.851 12.9001 243.193 12.0938 243.998 10.7501L246.414 11.8251C245.877 12.9001 245.072 13.975 243.73 14.5125C242.656 15.3188 241.314 15.5875 239.972 15.5875C237.825 15.5875 236.214 14.7813 234.872 13.4375C233.53 12.0938 232.725 10.4813 232.725 8.33132C232.725 6.18132 233.53 4.56882 234.872 3.22507C236.214 1.88132 237.825 1.07507 239.972 1.07507C241.314 1.34382 242.656 1.61257 243.73 2.41882Z" fill="white"/>
<path d="M281.303 -2.6875C281.303 -1.88125 281.84 -1.34375 282.914 -1.34375C283.719 -1.34375 284.524 -1.88125 284.524 -2.6875H286.672C286.672 -1.6125 286.403 -0.80625 285.598 -0.26875C284.793 0.268751 283.988 0.806251 283.182 0.806251C282.109 0.806251 281.303 0.537501 280.498 -0.26875C279.424 -1.075 279.156 -1.88125 279.156 -2.6875H281.303ZM279.156 15.3188H276.74V1.6125H279.424V10.75L286.403 1.34375H288.819V15.05H286.135V5.9125L279.156 15.3188Z" fill="white"/>
<path d="M149.781 34.9375C150.854 34.9375 151.66 34.6687 152.465 34.1312C153.27 33.5937 153.539 32.7875 153.539 31.7125C153.539 30.9062 153.27 30.1 152.465 29.2937C151.66 28.7562 150.854 28.4875 149.781 28.4875V34.9375ZM147.096 28.4875C146.023 28.4875 145.217 28.7562 144.412 29.2937C143.607 29.8312 143.339 30.6375 143.339 31.7125C143.339 32.5187 143.607 33.325 144.412 34.1312C145.217 34.6687 146.023 34.9375 147.096 34.9375V28.4875ZM147.096 24.725H149.781V26.0687C151.66 26.0687 153.002 26.6062 154.344 27.6812C155.686 28.7562 156.223 30.1 156.223 31.7125C156.223 33.325 155.686 34.6687 154.344 35.7437C153.002 36.8187 151.66 37.3562 149.781 37.3562V38.7H147.096V37.625C145.217 37.625 143.875 37.0875 142.533 36.0125C141.191 34.9375 140.654 33.5937 140.654 31.9812C140.654 30.3687 141.191 29.025 142.533 27.95C143.875 26.875 145.217 26.3375 147.096 26.3375V24.725Z" fill="white"/>
<path d="M228.155 25.8C229.228 26.6063 230.034 27.4125 230.839 28.4875L228.155 29.5625C227.349 28.2188 226.007 27.1438 224.397 27.1438C223.055 27.1438 221.981 27.6813 221.176 28.4875C220.37 29.2938 219.834 30.3688 219.834 31.7125C219.834 33.0563 220.37 34.1313 221.176 34.9375C221.981 35.7438 223.055 36.2813 224.397 36.2813C226.007 36.2813 227.349 35.475 228.155 34.1313L230.57 35.2063C230.034 36.2813 229.228 37.3563 227.886 37.8938C226.812 38.7 225.47 38.9688 224.128 38.9688C221.981 38.9688 220.37 38.1625 219.028 36.8188C217.686 35.475 216.881 33.8625 216.881 31.7125C216.881 29.5625 217.686 27.95 219.028 26.6063C220.37 25.2625 221.981 24.4563 224.128 24.4563C225.739 24.725 226.812 24.9938 228.155 25.8Z" fill="white"/>
<path d="M236.21 35.2063C237.015 36.0125 238.089 36.55 239.431 36.55C240.773 36.55 241.847 36.0125 242.652 35.2063C243.457 34.4 243.994 33.325 243.994 31.9813C243.994 30.6375 243.457 29.5625 242.652 28.7563C241.847 27.95 240.773 27.4125 239.431 27.4125C238.089 27.4125 237.015 27.95 236.21 28.7563C235.405 29.5625 234.868 30.6375 234.868 31.9813C235.136 33.0563 235.405 34.1313 236.21 35.2063ZM244.531 26.6063C245.873 27.95 246.678 29.5625 246.678 31.7125C246.678 33.8625 245.873 35.475 244.531 36.8188C243.189 38.1625 241.578 38.9688 239.431 38.9688C237.284 38.9688 235.673 38.1625 234.331 36.8188C232.989 35.475 232.184 33.8625 232.184 31.7125C232.184 29.5625 232.989 27.95 234.331 26.6063C235.673 25.2625 237.284 24.4563 239.431 24.4563C241.578 24.725 243.189 25.2625 244.531 26.6063Z" fill="white"/>
<path d="M251.514 32.7875V36.2813H255.809C256.883 36.2813 257.42 35.475 257.42 34.6688C257.42 33.5938 256.614 33.0563 255.809 33.0563H251.514V32.7875ZM251.514 27.4125V30.3688H255.541C256.346 30.3688 257.151 29.8313 257.151 28.7563C257.151 27.95 256.614 27.1438 255.541 27.1438H251.514V27.4125ZM248.83 38.7V24.9938H255.541C256.883 24.9938 257.688 25.2625 258.493 26.0688C259.298 26.875 259.835 27.6813 259.835 28.7563C259.835 29.8313 259.298 30.9063 258.493 31.4438C259.835 32.25 260.372 33.325 260.372 34.6688C260.372 35.7438 259.835 36.8188 259.03 37.3563C258.225 38.1625 257.151 38.4313 255.809 38.4313H248.83V38.7Z" fill="white"/>
<path d="M266.273 35.2063C267.079 36.0125 268.152 36.55 269.494 36.55C270.836 36.55 271.91 36.0125 272.715 35.2063C273.52 34.4 274.057 33.325 274.057 31.9813C274.057 30.6375 273.52 29.5625 272.715 28.7563C271.91 27.95 270.836 27.4125 269.494 27.4125C268.152 27.4125 267.079 27.95 266.273 28.7563C265.468 29.5625 264.931 30.6375 264.931 31.9813C264.931 33.0563 265.2 34.1313 266.273 35.2063ZM274.326 26.6063C275.668 27.95 276.473 29.5625 276.473 31.7125C276.473 33.8625 275.668 35.475 274.326 36.8188C272.984 38.1625 271.373 38.9688 269.226 38.9688C267.079 38.9688 265.468 38.1625 264.126 36.8188C262.784 35.475 261.979 33.8625 261.979 31.7125C261.979 29.5625 262.784 27.95 264.126 26.6063C265.468 25.2625 267.079 24.4563 269.226 24.4563C271.373 24.725 272.984 25.2625 274.326 26.6063Z" fill="white"/>
<path d="M155.953 58.5875C156.759 57.7812 157.296 56.7062 157.296 55.3625C157.296 54.0187 156.759 52.9437 155.953 52.1375C155.148 51.3312 154.075 50.7937 152.732 50.7937C151.39 50.7937 150.317 51.3312 149.511 52.1375C148.706 52.9437 148.169 54.0187 148.169 55.3625C148.169 56.7062 148.706 57.7812 149.511 58.5875C150.317 59.3937 151.39 59.9312 152.732 59.9312C154.075 59.9312 155.148 59.3937 155.953 58.5875ZM141.19 48.375H143.875V54.0187H146.022C146.29 52.4062 147.096 50.7937 148.438 49.7187C149.78 48.6437 151.39 48.1062 153.001 48.1062C155.148 48.1062 156.759 48.9125 158.101 50.2562C159.443 51.6 160.248 53.2125 160.248 55.3625C160.248 57.5125 159.443 59.125 158.101 60.4687C156.759 61.8125 155.148 62.6187 153.001 62.6187C151.122 62.6187 149.511 62.0812 148.169 61.0062C146.827 59.9312 146.022 58.3187 145.753 56.7062H143.606V62.35H140.922V48.375H141.19Z" fill="white"/>
<path d="M165.079 50.7937V54.825H168.568C169.642 54.825 170.447 54.0188 170.447 52.9438C170.447 51.8688 169.642 51.0625 168.568 51.0625H165.079V50.7937ZM165.079 62.0813H162.395V48.375H168.568C169.91 48.375 170.984 48.9125 172.058 49.7188C172.863 50.525 173.4 51.6 173.4 52.9438C173.4 54.2875 172.863 55.3625 172.058 56.1687C171.252 56.975 170.179 57.5125 168.568 57.5125H165.079V62.0813Z" fill="white"/>
<path d="M200.246 59.6625V50.7937H195.414V55.0938C195.414 56.975 195.146 58.5875 194.609 59.6625H200.246ZM192.462 65.3062H189.777V59.6625H191.388C192.193 59.3938 192.73 57.7812 192.73 55.0938V48.375H202.93V59.6625H205.077V65.3062H202.393V62.0813H192.462V65.3062Z" fill="white"/>
<path d="M221.18 52.675V48.375H223.864V52.4062C223.864 53.75 224.938 54.5562 227.085 54.5562C228.159 54.5562 228.964 54.5563 230.038 54.2875V48.375H232.722V62.0813H230.038V56.7063C229.232 56.975 228.159 56.975 227.085 56.975C223.595 57.2438 221.18 55.6313 221.18 52.675Z" fill="white"/>
<path d="M257.953 49.1812C259.026 49.9875 259.831 50.7937 260.637 51.8687L258.221 52.9437C257.416 51.6 256.074 50.525 254.463 50.525C253.121 50.525 252.047 51.0625 251.242 51.8687C250.437 52.675 249.9 53.75 249.9 55.0937C249.9 56.4375 250.437 57.5125 251.242 58.3187C252.047 59.125 253.121 59.6625 254.463 59.6625C256.074 59.6625 257.416 58.8562 258.221 57.5125L260.637 58.5875C260.1 59.6625 259.295 60.7375 257.953 61.275C256.879 62.0812 255.537 62.35 254.195 62.35C252.047 62.35 250.437 61.5437 249.095 60.2C247.753 59.125 246.947 57.2437 246.947 55.3625C246.947 53.2125 247.753 51.6 249.095 50.2562C250.437 48.9125 252.047 48.1062 254.195 48.1062C255.537 48.1062 256.879 48.375 257.953 49.1812Z" fill="white"/>
<path d="M295.532 44.075C295.532 44.8812 296.069 45.4187 297.142 45.4187C297.948 45.4187 298.753 44.8812 298.753 44.075H300.9C300.9 45.15 300.632 45.9562 299.827 46.4937C299.021 47.0312 298.216 47.5687 297.411 47.5687C296.337 47.5687 295.532 47.3 294.727 46.4937C293.921 45.9562 293.653 45.15 293.653 44.075H295.532ZM293.385 62.0812H290.969V48.375H293.653V57.7812L300.632 48.375H303.048V62.0812H300.363V52.9437L293.385 62.0812Z" fill="white"/>
<path d="M140.381 71.7562H143.333L147.36 79.0125L150.849 71.7562H153.533L148.97 81.4312C147.628 84.1187 146.018 85.4625 143.87 85.4625H142.528V83.0437H143.602C144.407 83.0437 145.212 82.5062 146.018 81.7L140.381 71.7562Z" fill="white"/>
<path d="M187.359 79.8187V83.3125H191.654C192.728 83.3125 193.264 82.5062 193.264 81.7C193.264 80.625 192.459 80.0875 191.654 80.0875H187.359V79.8187ZM187.359 74.175V77.1312H191.385C192.191 77.1312 192.996 76.5937 192.996 75.5187C192.996 74.7125 192.459 73.9062 191.385 73.9062H187.359V74.175ZM184.943 85.4625V71.7562H191.654C192.996 71.7562 193.801 72.025 194.607 72.8312C195.412 73.6375 195.949 74.4437 195.949 75.5187C195.949 76.5937 195.412 77.6687 194.607 78.2062C195.949 79.0125 196.485 80.0875 196.485 81.4312C196.485 82.5062 195.949 83.5812 195.143 84.1187C194.338 84.925 193.264 85.1937 191.922 85.1937H184.943V85.4625Z" fill="white"/>
<path d="M213.663 74.175V78.2062H217.152C218.226 78.2062 219.031 77.4 219.031 76.325C219.031 75.25 218.226 74.4437 217.152 74.4437H213.663V74.175ZM213.663 85.4625H210.979V71.7562H217.152C218.494 71.7562 219.568 72.2937 220.642 73.1C221.447 73.9062 221.984 74.9812 221.984 76.325C221.984 77.6687 221.447 78.7437 220.642 79.55C219.836 80.3562 218.494 80.8937 217.152 80.8937H213.663V85.4625Z" fill="white"/>
<path d="M234.597 72.5625C235.671 73.3688 236.476 74.175 237.281 75.25L234.865 76.325C234.06 74.9813 232.718 73.9062 231.108 73.9062C229.765 73.9062 228.692 74.4437 227.887 75.25C227.081 76.0563 226.544 77.1313 226.544 78.475C226.544 79.8188 227.081 80.8938 227.887 81.7C228.692 82.5063 229.765 83.0438 231.108 83.0438C232.718 83.0438 234.06 82.2375 234.865 80.8937L237.281 81.9688C236.744 83.0438 235.939 84.1187 234.597 84.6562C233.523 85.4625 232.181 85.7313 230.839 85.7313C228.692 85.7313 227.081 84.925 225.739 83.5812C224.397 82.2375 223.592 80.625 223.592 78.475C223.592 76.325 224.397 74.7125 225.739 73.3687C227.081 72.025 228.692 71.2188 230.839 71.2188C232.181 71.4875 233.255 72.025 234.597 72.5625Z" fill="white"/>
<path d="M141.188 15.3187V1.61243H143.872L148.703 10.2124L153.535 1.61243H156.219V15.3187H153.535V6.44993L149.509 13.7062H147.898L143.872 6.44993V15.3187H141.188Z" fill="white"/>
<path d="M190.578 1.61243H193.262V7.52493L198.362 1.61243H201.852L196.215 8.33118L202.12 15.3187H198.899L193.262 8.86868V15.3187H190.578V1.61243Z" fill="white"/>
<path d="M248.557 1.61243H251.241V7.52493L256.341 1.61243H259.562L253.925 8.33118L260.099 15.3187H256.878L251.241 8.86868V15.3187H248.557V1.61243Z" fill="white"/>
<path d="M261.979 15.3187V1.61243H264.394V10.7499L271.373 1.61243H273.789V15.3187H271.373V5.91243L264.394 15.3187H261.979Z" fill="white"/>
<path d="M158.637 38.7V24.9938H161.321V34.1313L168.3 24.9938H170.716V38.7H168.031V29.5625L161.053 38.7H158.637Z" fill="white"/>
<path d="M173.398 38.7V24.9938H176.083V30.6375H182.793V24.9938H185.209V38.7H182.793V33.0563H176.083V38.7H173.398Z" fill="white"/>
<path d="M194.071 28.7563L191.923 33.5938H195.95L194.071 28.7563ZM187.092 38.7L192.997 24.9938H195.144L201.05 38.7H198.365L197.292 36.0125H191.118L190.044 38.7H187.092Z" fill="white"/>
<path d="M202.658 38.7V24.9938H205.342V30.6375H212.053V24.9938H214.737V38.7H212.053V33.0563H205.342V38.7H202.658Z" fill="white"/>
<path d="M284.527 30.6375H278.891V32.7875H284.527V30.6375Z" fill="white"/>
<path d="M175.549 62.0813V48.375H178.233V57.7812L185.212 48.375H187.628V62.0813H184.944V52.9438L177.965 62.0813H175.549Z" fill="white"/>
<path d="M206.951 62.0813V48.375H209.635V57.7812L216.614 48.375H219.03V62.0813H216.346V52.9438L209.367 62.0813H206.951Z" fill="white"/>
<path d="M245.34 48.375V50.7937H238.092V54.0188H244.266V56.4375H238.092V59.6625H245.608V62.0813H235.408V48.375H245.34Z" fill="white"/>
<path d="M262.785 48.375H265.469V54.5562L270.57 48.375H274.059L268.422 55.0938L274.328 62.0813H271.106L265.469 55.6313V62.0813H262.785V48.375Z" fill="white"/>
<path d="M276.207 62.0813V48.375H278.891V57.7812L285.87 48.375H288.286V62.0813H285.602V52.9438L278.623 62.0813H276.207Z" fill="white"/>
<path d="M155.416 85.4625V71.7562H157.832V77.4H164.542V71.7562H167.227V85.4625H164.542V79.8187H157.832V85.4625H155.416Z" fill="white"/>
<path d="M169.908 85.4625V71.7562H172.592V81.1625L179.571 71.7562H181.987V85.4625H179.303V76.325L172.324 85.4625H169.908Z" fill="white"/>
<path d="M208.562 71.7562V74.175H201.315V77.4H207.489V79.8187H201.315V83.0437H208.831V85.4625H198.631V71.7562H208.562Z" fill="white"/>
<path d="M239.436 85.4625V71.7562H241.851V81.1625L248.83 71.7562H251.246V85.4625H248.83V76.325L241.851 85.4625H239.436Z" fill="white"/>
<path d="M253.391 74.175V71.7562H265.201V74.175H260.638V85.4625H257.954V74.175H253.391Z" fill="white"/>
<path d="M277.277 71.7562V74.175H269.761V77.4H276.203V79.8187H269.761V83.0437H277.277V85.4625H267.346V71.7562H277.277Z" fill="white"/>
<path d="M278.891 74.175V71.7562H290.701V74.175H286.138V85.4625H283.454V74.175H278.891Z" fill="white"/>
<path d="M121.861 1.61243H120.25V86.2687H121.861V1.61243Z" fill="white"/>
</g>
<defs>
<clipPath id="clip0_89_96">
<rect width="305" height="86" fill="white"/>
</clipPath>
</defs>
</svg>
